<svg id="Слой_1" data-name="Слой 1" xmlns="http://www.w3.org/2000/svg" viewBox="0 0 288 91.08"><defs><style>.cls-1{fill:#fff}</style></defs><path class="cls-1" d="M51.78 32.21v-1.67-23.8a3.61 3.61 0 013.34-3.62 3.55 3.55 0 013.53 3.56v38a3.74 3.74 0 01-.09.45c-.36-.32-.67-.56-.94-.83a21.85 21.85 0 00-16.19-6.57 21.55 21.55 0 00-20.67 18.81 21.26 21.26 0 005.91 17.86 20.55 20.55 0 0013.22 6.32 21.39 21.39 0 0015.52-4.24 20.1 20.1 0 008-14 42.43 42.43 0 00.22-5.09V7.12a3.38 3.38 0 013.53-3.7 3.42 3.42 0 013.33 3 4.55 4.55 0 010 .58c0 17.76.07 35.53 0 53.29A27 27 0 0163 78.74a27.05 27.05 0 01-16.09 8.71 27.82 27.82 0 01-22.44-5.79 27.25 27.25 0 01-10.61-19 27.64 27.64 0 017-22.07A28.92 28.92 0 0138.23 31a28.88 28.88 0 0112.16.94c.36.06.73.12 1.39.27zM130.33 59.08a28.2 28.2 0 01-9.86 22 27.54 27.54 0 01-35.05 1 29.12 29.12 0 01-8.81-34.44c4.3-9.85 11.85-15.73 22.49-17.13 8.11-1.07 15.36 1.37 21.54 6.78A28.49 28.49 0 01130.31 56a26.44 26.44 0 01.02 3.08zM103 80.87a36.55 36.55 0 003.75-.5 21.36 21.36 0 0016.61-18.89 21.37 21.37 0 00-8.19-19.76 20.67 20.67 0 00-28.89 3.17c-7.44 8.89-6.61 23 2.41 30.83A21.1 21.1 0 00103 80.87z"/><path class="cls-1" d="M25.54 59.43a16.72 16.72 0 0116.52-16.72c9-.14 16.62 7.66 16.6 16.8a16.56 16.56 0 11-33.12-.08zm26.19-.12A9.66 9.66 0 1042.15 69a9.54 9.54 0 009.59-9.69zM221.48 53.08c.29-.23.84-.62 1.35-1.06 2.95-2.49 7.29-2.4 9.62.29a19.1 19.1 0 011.55 2.45c.66-.65 1.25-1.23 1.85-1.8a9.33 9.33 0 018.08-2.62 6.22 6.22 0 015.26 7.25c-1 4.64-2.26 9.23-3.46 13.83a3.82 3.82 0 01-.88 1.48 2.32 2.32 0 01-3 .48 2 2 0 01-.87-2.51c.81-3.14 1.7-6.27 2.45-9.43a14.75 14.75 0 00.35-3.77 2.84 2.84 0 00-2.48-2.8 5.65 5.65 0 00-6.52 3.26 58.61 58.61 0 00-2.21 6.93c-.59 2-1 4.06-1.67 6a4.39 4.39 0 01-1.62 2.23 3.11 3.11 0 01-2.36 0 1.67 1.67 0 01-.81-2.09c.42-1.84.92-3.67 1.38-5.5.5-2 1.08-4 1.46-6.08.29-1.54.31-3.18-1.23-4.18a4.8 4.8 0 00-5.18 0 6.6 6.6 0 00-3.21 4c-1.06 3.63-2 7.3-3 10.95a10.69 10.69 0 01-.84 2.14 2.45 2.45 0 01-2.89 1.11 2.07 2.07 0 01-1.29-2.64c.58-2.52 1.27-5 1.93-7.52.91-3.44 1.79-6.88 2.77-10.3a5 5 0 011.24-2.18 2.1 2.1 0 012.69-.3 8.86 8.86 0 011.54 2.38zM107.27 6a45 45 0 0127.31 9.72 40.74 40.74 0 0111.27 13.9 3 3 0 01-1.31 3.89 2.91 2.91 0 01-3.93-1.41 37.21 37.21 0 00-25.35-19.2 34.25 34.25 0 00-18.52.85 2.9 2.9 0 01-3.92-2 2.88 2.88 0 012-3.62A35.92 35.92 0 01107.27 6zM170 74c-7.3 0-12-5.88-10.33-13.12a13.55 13.55 0 0114.63-10.55 10 10 0 018.84 9.67c.34 7.44-6.09 14-13.14 14zm8.3-13.69a5.42 5.42 0 00-2.73-5 6.48 6.48 0 00-6.95.23 9.08 9.08 0 00-4.31 8.34 5.64 5.64 0 006.69 5.8c4-.57 7.25-4.54 7.25-9.37z"/><path class="cls-1" d="M107.28 18.25a33.64 33.64 0 0120.2 8 26.46 26.46 0 017.22 9.35 2.81 2.81 0 01-.93 3.78 2.75 2.75 0 01-3.87-1.1c-1.24-1.85-2.45-3.74-3.85-5.46a23.39 23.39 0 00-9.71-6.88 27.66 27.66 0 00-16.04-1.34 4.46 4.46 0 01-2 0 2.6 2.6 0 01-.39-4.83c2.59-1.25 5.43-1.48 9.37-1.52zM264 74a14.46 14.46 0 01-8.38-3 2.08 2.08 0 01-.57-3c.65-1 1.61-1.16 2.82-.44.76.45 1.46 1 2.23 1.43a9.55 9.55 0 005.74 1 3 3 0 002.58-2c.28-1.34 0-2.1-1.5-2.9s-3.08-1.42-4.58-2.2c-3.94-2.07-4.91-5.29-2.52-9a7.8 7.8 0 013.29-2.76c4.14-1.81 8.1-.84 11.81 1.4a2 2 0 01.51 3 1.87 1.87 0 01-2.82.47 9.34 9.34 0 00-5.14-1.88 8.16 8.16 0 00-2.28.28 2.38 2.38 0 00-1.82 2.17 2.23 2.23 0 001.39 2.33c1.4.73 2.9 1.29 4.26 2.09a11.81 11.81 0 013.2 2.41c1.93 2.32 1.11 6.54-1.41 8.5A10.31 10.31 0 01264 74zM149.78 50.72h3.55A2 2 0 01155 54a2.51 2.51 0 01-1.63.83 21.17 21.17 0 01-3.71 0c-1-.07-1.33.34-1.56 1.23q-1.84 7.18-3.81 14.33a7.6 7.6 0 01-.92 2.1 2.34 2.34 0 01-3 1c-1-.43-1.38-1.26-1.06-2.63.46-2 1-4 1.54-5.94l2.37-8.84c.09-.32.12-.66.18-1.06l-.74-.14a2.06 2.06 0 01-1.77-2.1c0-1 .83-2.1 1.87-2 1.79.18 2.07-.8 2.43-2.21 1.33-5.27 5.59-7.88 10.66-6.68 1.49.35 2.15 1.25 1.89 2.54s-1.17 1.83-2.73 1.5c-3.2-.7-5.24 1.52-5.23 4.79zM199.17 55a19 19 0 012.46-2.65 14.75 14.75 0 013.62-1.91 2 2 0 012.59 1.33 2.5 2.5 0 01-1 2.92 4.44 4.44 0 01-1.15.53c-5.3 1.22-8 4.86-9.3 9.86-.51 2-1 4-1.63 5.92a5.35 5.35 0 01-1.35 2.09 2.07 2.07 0 01-2.68.18 1.86 1.86 0 01-.84-2.2q1.51-5.84 3.06-11.66c.6-2.24 1.18-4.48 1.84-6.71.48-1.62 1.36-2.3 2.68-2.28A2 2 0 01199.5 53c-.09.55-.19 1.14-.33 2zM118.57 59.12A16.68 16.68 0 01102.19 76c-8.81 0-16.05-7.73-16-16.93a16.59 16.59 0 0116.36-16.81c8.72-.03 16.03 7.66 16.02 16.86zm-16.17-9.84c-5-.3-9.28 4.19-9.36 9.62s4.2 10 9.19 10 9.43-4.53 9.46-9.93a9.52 9.52 0 00-9.29-9.69z"/></svg>